<?xml version="1.0" encoding="UTF-8"?>
<!DOCTYPE svg PUBLIC "-//W3C//DTD SVG 1.1//EN" "http://www.w3.org/Graphics/SVG/1.1/DTD/svg11.dtd">
<!-- Creator: CorelDRAW X8 -->
<svg xmlns="http://www.w3.org/2000/svg" xml:space="preserve" width="117.619mm" height="26.2778mm" version="1.1" style="shape-rendering:geometricPrecision; text-rendering:geometricPrecision; image-rendering:optimizeQuality; fill-rule:evenodd; clip-rule:evenodd"
viewBox="0 0 11781 2632"
 xmlns:xlink="http://www.w3.org/1999/xlink">
 <defs>
  <style type="text/css">
   <![CDATA[
    .fil1 {fill:#74C5D4;fill-rule:nonzero}
    .fil3 {fill:#327A99;fill-rule:nonzero}
    .fil0 {fill:#2E7B99;fill-rule:nonzero}
    .fil2 {fill:#00A6C5;fill-rule:nonzero}
   ]]>
  </style>
 </defs>
 <g id="Camada_x0020_1">
  <metadata id="CorelCorpID_0Corel-Layer"/>
  <polygon class="fil0" points="6355,1001 6432,1001 6432,1631 6355,1631 "/>
  <path class="fil0" d="M6581 1001l75 0 302 391c12,15 25,33 39,54 13,20 24,35 31,47l12 19 0 -511 78 0 0 630 -78 0 -292 -378c-14,-18 -29,-38 -44,-60 -15,-21 -26,-38 -34,-50l-12 -19 0 507 -77 0 0 -630z"/>
  <path class="fil0" d="M7500 1562c75,0 136,-23 183,-69 46,-47 70,-105 70,-177 0,-71 -24,-130 -70,-176 -47,-47 -108,-70 -183,-70l-157 0 0 492 157 0zm-235 -561l240 0c98,0 178,30 239,91 60,61 91,136 91,224 0,88 -31,163 -91,224 -61,61 -141,91 -239,91l-240 0 0 -630z"/>
  <path class="fil0" d="M8019 1571c-50,-48 -76,-108 -76,-183l0 -387 78 0 0 387c0,53 18,97 53,131 36,34 79,51 130,51 51,0 95,-17 130,-51 35,-34 53,-78 53,-131l0 -387 78 0 0 387c0,75 -25,135 -76,183 -51,46 -112,70 -185,70 -73,0 -135,-24 -185,-70z"/>
  <path class="fil0" d="M8609 1485c55,57 125,85 210,85 43,0 81,-10 115,-30 34,-19 51,-48 51,-85 0,-14 -3,-26 -9,-37 -7,-12 -14,-21 -23,-28 -8,-7 -20,-14 -36,-21 -16,-7 -30,-12 -42,-15 -11,-4 -27,-8 -46,-13 -29,-7 -51,-13 -68,-18 -16,-5 -36,-12 -60,-22 -23,-9 -41,-20 -54,-31 -12,-12 -23,-27 -33,-45 -9,-18 -14,-39 -14,-62 0,-53 22,-95 66,-126 44,-31 95,-46 154,-46 80,0 151,24 214,71l-36 60c-53,-40 -112,-60 -178,-60 -33,0 -65,8 -94,25 -30,17 -44,42 -44,74 0,13 3,25 9,35 6,11 13,19 21,26 9,7 20,14 36,20 16,6 29,10 41,14 12,3 29,7 50,12 27,7 50,13 69,19 18,6 39,14 60,24 22,11 39,22 52,34 13,12 24,28 33,47 10,19 14,40 14,63 0,60 -25,106 -74,138 -49,32 -107,48 -174,48 -101,0 -182,-32 -245,-96l35 -60z"/>
  <polygon class="fil0" points="9350,1070 9117,1070 9117,1001 9661,1001 9661,1070 9428,1070 9428,1631 9350,1631 "/>
  <path class="fil0" d="M10020 1405c54,0 98,-16 131,-49 34,-32 50,-71 50,-119 0,-47 -16,-87 -50,-119 -33,-32 -76,-48 -130,-48l-188 0 0 335 187 0zm-265 -404l258 0c85,0 152,22 199,67 47,45 71,101 71,169 0,47 -13,89 -38,128 -25,38 -60,66 -106,83l149 183 -98 0 -128 -160c-16,2 -54,3 -115,3l-114 0 0 157 -78 0 0 -630z"/>
  <polygon class="fil0" points="10402,1001 10480,1001 10480,1631 10402,1631 "/>
  <path class="fil0" d="M11056 1444l-106 -221 -58 -133c-19,50 -37,95 -56,134l-108 220 328 0zm-197 -443l67 0 298 630 -81 0 -58 -122 -386 0 -58 122 -80 0 298 -630z"/>
  <polygon class="fil0" points="11306,1001 11383,1001 11383,1562 11781,1562 11781,1631 11306,1631 "/>
  <path class="fil1" d="M3211 1978c24,0 49,-1 72,-3l-431 3 359 0z"/>
  <polygon class="fil0" points="1846,1 1397,714 950,1 0,1 0,2632 772,2632 772,1190 1397,2155 2782,1 "/>
  <polygon class="fil1" points="2142,1 2147,0 2142,0 "/>
  <path class="fil1" d="M5442 1l-2 0 -770 0 0 1195c-29,-308 -168,-601 -391,-816 -235,-226 -543,-345 -864,-373 -59,-5 -117,-7 -176,-7l-457 1 -420 653 849 0c146,0 291,38 407,130 126,100 205,246 229,404 24,155 7,322 -66,462 -68,130 -181,234 -318,286 -58,21 -119,34 -180,39l27 0c421,0 764,-119 1029,-356 -2,2 -4,5 -5,7 135,-96 239,-242 336,-374l4 -5c362,-494 768,-1246 768,-1246z"/>
  <path class="fil2" d="M4670 1252l0 2c0,0 0,-1 0,-2 -97,132 -201,278 -336,374 1,-2 3,-5 5,-7 0,0 -1,0 -1,1 -282,251 -655,355 -1028,355l-27 0c-24,2 -48,3 -72,3l-359 0 -57 0 -13 0 0 654 13 0 444 0c298,0 599,-64 850,-228 246,-161 438,-405 525,-686 34,-111 52,-226 56,-342l0 1256 772 0 0 -2631 0 0c0,0 -409,756 -772,1251z"/>
  <polygon class="fil3" points="1846,2632 2782,2632 2782,1176 "/>
 </g>
</svg>
